<?xml version="1.0" encoding="UTF-8" standalone="no"?>
<svg
   xmlns:dc="http://purl.org/dc/elements/1.1/"
   xmlns:cc="http://creativecommons.org/ns#"
   xmlns:rdf="http://www.w3.org/1999/02/22-rdf-syntax-ns#"
   xmlns:svg="http://www.w3.org/2000/svg"
   xmlns="http://www.w3.org/2000/svg"
   xmlns:sodipodi="http://sodipodi.sourceforge.net/DTD/sodipodi-0.dtd"
   xmlns:inkscape="http://www.inkscape.org/namespaces/inkscape"
   width="140"
   height="140"
   viewBox="0 0 140 140.00001"
   version="1.1"
   id="svg13"
   sodipodi:docname="icon.svg"
   inkscape:version="0.92.3 (2405546, 2018-03-11)">
  <metadata
     id="metadata19">
    <rdf:RDF>
      <cc:Work
         rdf:about="">
        <dc:format>image/svg+xml</dc:format>
        <dc:type
           rdf:resource="http://purl.org/dc/dcmitype/StillImage" />
        <dc:title />
      </cc:Work>
    </rdf:RDF>
  </metadata>
  <defs
     id="defs17" />
  <sodipodi:namedview
     pagecolor="#ffffff"
     bordercolor="#666666"
     borderopacity="1"
     objecttolerance="10"
     gridtolerance="10"
     guidetolerance="10"
     inkscape:pageopacity="0"
     inkscape:pageshadow="2"
     inkscape:window-width="1920"
     inkscape:window-height="1017"
     id="namedview15"
     showgrid="false"
     fit-margin-top="0"
     fit-margin-left="0"
     fit-margin-right="0"
     fit-margin-bottom="0"
     inkscape:zoom="1.917278"
     inkscape:cx="-137.89803"
     inkscape:cy="14.54582"
     inkscape:window-x="1912"
     inkscape:window-y="-8"
     inkscape:window-maximized="1"
     inkscape:current-layer="svg13"
     borderlayer="true"
     inkscape:showpageshadow="false" />
  <path
     inkscape:connector-curvature="0"
     d="m 112.49811,64.25154 a 18.776,18.776 0 0 0 -17.500003,-25.513 18.658,18.658 0 0 0 -10.42,3.165 31.259,31.259 0 0 0 -58.346,15.589 c 0,0.527 0.02,1.055 0.039,1.582 a 28.138,28.138 0 0 0 9.337,54.679 h 71.889003 a 25,25 0 0 0 5,-49.5 z"
     data-name="Icon awesome-cloud"
     id="Icon_awesome-cloud"
     style="fill:#000000;fill-opacity:1" />
  <path
     style="fill:#ffffff;fill-opacity:1"
     inkscape:connector-curvature="0"
     d="m 60.548107,89.875544 a 10.82,10.82 0 0 1 -1.289,-9.508004 l -24.622,-44.205999 a 31.423,31.423 0 0 1 3.658,-3.344 l 33.012,40.313999 a 10.834,10.834 0 1 1 -10.759,16.744004 z"
     data-name="Intersection 2"
     id="Intersection_2" />
</svg>
