<?xml version="1.0" encoding="UTF-8" standalone="no"?>
<svg
   xmlns:dc="http://purl.org/dc/elements/1.1/"
   xmlns:cc="http://creativecommons.org/ns#"
   xmlns:rdf="http://www.w3.org/1999/02/22-rdf-syntax-ns#"
   xmlns:svg="http://www.w3.org/2000/svg"
   xmlns="http://www.w3.org/2000/svg"
   xmlns:sodipodi="http://sodipodi.sourceforge.net/DTD/sodipodi-0.dtd"
   xmlns:inkscape="http://www.inkscape.org/namespaces/inkscape"
   width="549.22443"
   height="122.01379"
   viewBox="0 0 549.22442 122.01379"
   version="1.1"
   id="svg13"
   sodipodi:docname="scalewx_logo.svg"
   inkscape:version="0.92.3 (2405546, 2018-03-11)">
  <metadata
     id="metadata19">
    <rdf:RDF>
      <cc:Work
         rdf:about="">
        <dc:format>image/svg+xml</dc:format>
        <dc:type
           rdf:resource="http://purl.org/dc/dcmitype/StillImage" />
        <dc:title></dc:title>
      </cc:Work>
    </rdf:RDF>
  </metadata>
  <defs
     id="defs17" />
  <sodipodi:namedview
     pagecolor="#ffffff"
     bordercolor="#666666"
     borderopacity="1"
     objecttolerance="10"
     gridtolerance="10"
     guidetolerance="10"
     inkscape:pageopacity="0"
     inkscape:pageshadow="2"
     inkscape:window-width="1920"
     inkscape:window-height="1017"
     id="namedview15"
     showgrid="false"
     fit-margin-top="10"
     fit-margin-left="10"
     fit-margin-right="10"
     fit-margin-bottom="10"
     inkscape:zoom="1.3557203"
     inkscape:cx="276.19841"
     inkscape:cy="11.56234"
     inkscape:window-x="1912"
     inkscape:window-y="-8"
     inkscape:window-maximized="1"
     inkscape:current-layer="Group_28" />
  <g
     id="Group_30"
     data-name="Group 30"
     transform="translate(-536.99964,-461.10923)">
    <g
       id="Group_29"
       data-name="Group 29"
       transform="translate(547,465.109)">
      <g
         id="Group_28"
         data-name="Group 28">
        <g
           id="g861">
          <path
             inkscape:connector-curvature="0"
             transform="translate(0,18.247)"
             d="M 105.02,40.265 A 18.776,18.776 0 0 0 87.52,14.752 18.658,18.658 0 0 0 77.1,17.917 31.259,31.259 0 0 0 18.754,33.506 c 0,0.527 0.02,1.055 0.039,1.582 a 28.138,28.138 0 0 0 9.337,54.679 h 71.889 a 25,25 0 0 0 5,-49.5 z"
             data-name="Icon awesome-cloud"
             id="Icon_awesome-cloud" />
          <g
             id="ScaleWeather"
             style="font-weight:700;font-size:57px;font-family:OpenSans-Bold, 'Open Sans'"
             transform="translate(157.082,85.534)"
             aria-label="ScaleWeather">
            <path
               id="path820"
               style=""
               d="m 29.140137,-11.299805 q 0,5.5107425 -3.979981,8.6835941 -3.952148,3.17285152 -11.021484,3.17285152 -6.5126954,0 -11.5224611,-2.44921872 v -8.015625 q 4.1191407,1.836914 6.9580079,2.5883789 2.8666992,0.7514648 5.2324222,0.7514648 2.838867,0 4.341796,-1.0854492 1.530762,-1.0854492 1.530762,-3.2285154 0,-1.196778 -0.667969,-2.115235 -0.667968,-0.946289 -1.976074,-1.809082 -1.280273,-0.862793 -5.260254,-2.755371 -3.7294918,-1.753418 -5.5942379,-3.367675 -1.8647461,-1.614258 -2.9780274,-3.757325 -1.1132812,-2.143066 -1.1132812,-5.009765 0,-5.399414 3.6459961,-8.48877 3.6738284,-3.089355 10.1308594,-3.089355 3.172851,0 6.039551,0.751465 2.894531,0.751464 6.03955,2.115234 l -2.783203,6.707519 q -3.256347,-1.335937 -5.399414,-1.864746 -2.115234,-0.528808 -4.174804,-0.528808 -2.449219,0 -3.757325,1.141113 -1.308105,1.141113 -1.308105,2.978027 0,1.141114 0.528809,2.003907 0.528808,0.834961 1.669921,1.642089 1.168946,0.779297 5.482911,2.838868 5.705566,2.727539 7.8208,5.48291 2.115235,2.727539 2.115235,6.707519 z" />
            <path
               id="path822"
               style=""
               d="m 48.483398,0.55664062 q -14.52832,0 -14.52832,-15.94775362 0,-7.932129 3.952149,-12.106934 3.952148,-4.202637 11.327636,-4.202637 5.399414,0 9.685547,2.115235 l -2.504883,6.568359 q -2.003906,-0.807129 -3.729492,-1.308105 -1.725586,-0.528809 -3.451172,-0.528809 -6.624023,0 -6.624023,9.407227 0,9.1289059 6.624023,9.1289059 2.449219,0 4.536621,-0.6401367 2.087403,-0.6679688 4.174805,-2.0595703 v 7.2641601 q -2.05957,1.3081055 -4.174805,1.80908206 -2.087402,0.50097656 -5.288086,0.50097656 z" />
            <path
               id="path824"
               style=""
               d="m 84.887695,0 -1.64209,-4.2304687 h -0.222656 q -2.143066,2.699707 -4.425293,3.75732417 -2.254394,1.02978515 -5.90039,1.02978515 -4.480957,0 -7.069336,-2.56054692 -2.560547,-2.5605468 -2.560547,-7.2919921 0,-4.9541016 3.451172,-7.2919926 3.479004,-2.365722 10.464843,-2.616211 l 5.399414,-0.166992 v -1.363769 q 0,-4.731446 -4.842773,-4.731446 -3.729492,0 -8.76709,2.254395 l -2.811035,-5.733398 q 5.371582,-2.811036 11.912109,-2.811036 6.262207,0 9.602051,2.727539 3.339844,2.727539 3.339844,8.293946 V 0 Z m -2.504883,-14.416992 -3.284179,0.111328 q -3.70166,0.111328 -5.510742,1.335937 -1.809082,1.22461 -1.809082,3.7294926 0,3.5903321 4.11914,3.5903321 2.950196,0 4.703613,-1.6977539 1.78125,-1.697754 1.78125,-4.5087888 z" />
            <path
               id="path826"
               style=""
               d="m 108.01611,0 h -8.488766 v -43.306641 h 8.488766 z" />
            <path
               id="path828"
               style=""
               d="m 129.78076,-25.661133 q -2.69971,0 -4.23047,1.725586 -1.53076,1.697754 -1.75341,4.842774 h 11.9121 q -0.0557,-3.14502 -1.64209,-4.842774 -1.58642,-1.725586 -4.28613,-1.725586 z m 1.19678,26.21777362 q -7.51465,0 -11.74512,-4.14697262 -4.23047,-4.1469727 -4.23047,-11.745117 0,-7.820801 3.89649,-12.079102 3.92431,-4.286133 10.82666,-4.286133 6.59619,0 10.27002,3.757325 3.67383,3.757324 3.67383,10.381347 v 4.119141 h -20.0669 q 0.13916,3.618164 2.14307,5.6499023 2.0039,2.0317382 5.62207,2.0317382 2.81103,0 5.31592,-0.5844726 2.50488,-0.5844727 5.23242,-1.8647461 v 6.5683594 Q 139.68896,-0.52880859 137.15625,0 q -2.53271,0.55664062 -6.17871,0.55664062 z" />
            <path
               id="path830"
               style="font-weight:400;font-family:OpenSans, 'Open Sans'"
               d="m 187.28174,0 h -4.67578 l -8.21045,-27.247559 q -0.58447,-1.809082 -1.30811,-4.564453 -0.72363,-2.755371 -0.75146,-3.312011 -0.61231,3.673828 -1.94824,8.043457 L 162.42773,0 h -4.67578 l -10.82666,-40.69043 h 5.00977 l 6.4292,25.132325 q 1.33594,5.288085 1.94824,9.5742183 0.75146,-5.0932613 2.22656,-9.9638673 l 7.29199,-24.742676 h 5.00977 l 7.65381,24.965332 q 1.33594,4.313965 2.25439,9.7412113 0.52881,-3.9521485 2.00391,-9.6298833 l 6.40137,-25.07666 h 5.00976 z" />
            <path
               id="path832"
               style="font-weight:400;font-family:OpenSans, 'Open Sans'"
               d="m 216.72803,0.55664062 q -6.76319,0 -10.6875,-4.11914062 -3.89649,-4.1191406 -3.89649,-11.438965 0,-7.375488 3.61817,-11.717285 3.64599,-4.341797 9.76904,-4.341797 5.7334,0 9.07324,3.785156 3.33985,3.757325 3.33985,9.936036 v 2.922363 h -21.01319 q 0.13916,5.3715818 2.69971,8.154785 2.58838,2.7832031 7.26416,2.7832031 4.92627,0 9.74121,-2.0595703 v 4.1191406 q -2.44922,1.05761719 -4.64795,1.50292969 -2.1709,0.47314453 -5.26025,0.47314453 z M 215.47559,-27.191895 q -3.67383,0 -5.87256,2.393555 -2.1709,2.393555 -2.56055,6.624024 h 15.94775 q 0,-4.369629 -1.94824,-6.679688 -1.94824,-2.337891 -5.5664,-2.337891 z" />
            <path
               id="path834"
               style="font-weight:400;font-family:OpenSans, 'Open Sans'"
               d="m 254.55176,0 -0.91846,-4.3417969 h -0.22266 q -2.28222,2.8666992 -4.56445,3.8964844 -2.25439,1.00195312 -5.6499,1.00195312 -4.53662,0 -7.125,-2.33789062 -2.56055,-2.3378906 -2.56055,-6.6518555 0,-9.2402345 14.77881,-9.6855465 l 5.17676,-0.166993 v -1.892578 q 0,-3.590332 -1.5586,-5.288086 -1.53076,-1.725586 -4.92626,-1.725586 -3.81299,0 -8.62793,2.337891 l -1.41944,-3.534668 q 2.2544,-1.224609 4.92627,-1.92041 2.69971,-0.695801 5.39942,-0.695801 5.45507,0 8.07128,2.421387 2.64405,2.421387 2.64405,7.765137 V 0 Z m -10.43701,-3.2563477 q 4.31396,0 6.76318,-2.3657226 2.47705,-2.3657227 2.47705,-6.6240237 v -2.755371 l -4.62012,0.194824 q -5.51074,0.194825 -7.95996,1.725586 -2.42138,1.50293 -2.42138,4.7036136 0,2.5048828 1.50293,3.8129883 1.53076,1.3081054 4.2583,1.3081054 z" />
            <path
               id="path836"
               style="font-weight:400;font-family:OpenSans, 'Open Sans'"
               d="m 277.37402,-3.2563477 q 1.22461,0 2.36573,-0.1669921 1.14111,-0.1948243 1.80908,-0.3896485 v 3.53466799 q -0.75147,0.3618164 -2.22656,0.58447265 -1.44727,0.25048828 -2.61622,0.25048828 -8.85058,0 -8.85058,-9.32373042 V -26.913574 h -4.36963 v -2.226563 l 4.36963,-1.92041 1.94824,-6.512695 h 2.67188 v 7.069336 h 8.85058 v 3.590332 h -8.85058 v 17.9516599 q 0,2.7553711 1.3081,4.2304688 1.30811,1.4750976 3.59033,1.4750976 z" />
            <path
               id="path838"
               style="font-weight:400;font-family:OpenSans, 'Open Sans'"
               d="m 308.5459,0 v -19.73291 q 0,-3.729492 -1.69776,-5.566406 -1.69775,-1.836914 -5.31591,-1.836914 -4.81494,0 -7.04151,2.61621 -2.19873,2.616211 -2.19873,8.572266 V 0 h -4.62012 v -43.306641 h 4.62012 v 13.108887 q 0,2.365723 -0.22265,3.924317 h 0.27832 q 1.36377,-2.198731 3.86865,-3.451172 2.53271,-1.280274 5.76123,-1.280274 5.59424,0 8.37744,2.671875 2.81104,2.644043 2.81104,8.433106 V 0 Z" />
            <path
               id="path840"
               style="font-weight:400;font-family:OpenSans, 'Open Sans'"
               d="m 335.51514,0.55664062 q -6.76319,0 -10.6875,-4.11914062 -3.89649,-4.1191406 -3.89649,-11.438965 0,-7.375488 3.61817,-11.717285 3.64599,-4.341797 9.76904,-4.341797 5.7334,0 9.07324,3.785156 3.33985,3.757325 3.33985,9.936036 v 2.922363 h -21.01319 q 0.13916,5.3715818 2.69971,8.154785 2.58838,2.7832031 7.26416,2.7832031 4.92627,0 9.74121,-2.0595703 v 4.1191406 q -2.44922,1.05761719 -4.64795,1.50292969 -2.1709,0.47314453 -5.26025,0.47314453 z M 334.2627,-27.191895 q -3.67383,0 -5.87256,2.393555 -2.1709,2.393555 -2.56055,6.624024 h 15.94775 q 0,-4.369629 -1.94824,-6.679688 -1.94824,-2.337891 -5.5664,-2.337891 z" />
            <path
               id="path842"
               style="font-weight:400;font-family:OpenSans, 'Open Sans'"
               d="m 368.49609,-31.060547 q 2.03174,0 3.646,0.333985 l -0.64014,4.286132 q -1.89258,-0.41748 -3.33984,-0.41748 -3.70166,0 -6.3457,3.005859 -2.61621,3.00586 -2.61621,7.486817 V 0 h -4.62012 v -30.503906 h 3.81299 l 0.5288,5.649902 h 0.22266 q 1.69776,-2.978027 4.09131,-4.592285 2.39355,-1.614258 5.26025,-1.614258 z" />
          </g>
          <path
             inkscape:connector-curvature="0"
             transform="rotate(-34,22.05919,-1.288835)"
             d="m 0,86.874 a 10.817,10.817 0 0 1 4.249,-8.6 L 10.935,0 18.283,79.009 A 10.833,10.833 0 1 1 0,86.874 Z"
             data-name="Union 2"
             id="Union_2" />
          <path
             style="fill:#ffffff"
             inkscape:connector-curvature="0"
             transform="translate(27.159,27.078)"
             d="M 25.911,57.058 A 10.82,10.82 0 0 1 24.622,47.55 L 0,3.344 A 31.423,31.423 0 0 1 3.658,0 L 36.67,40.314 A 10.834,10.834 0 1 1 25.911,57.058 Z"
             data-name="Intersection 2"
             id="Intersection_2" />
        </g>
      </g>
    </g>
  </g>
</svg>
